<svg xmlns="http://www.w3.org/2000/svg"  viewBox="0 0 24 24" width="24px" height="24px"><path d="M 3.5 7 C 2.121094 7 1 8.121094 1 9.5 L 1 16 L 3 16 L 3 9.5 C 3 9.222656 3.226563 9 3.5 9 L 5.5 9 C 5.773438 9 6 9.222656 6 9.5 L 6 16 L 8 16 L 8 9.5 C 8 9.222656 8.226563 9 8.5 9 L 10.5 9 C 10.773438 9 11 9.222656 11 9.5 L 11 16 L 13 16 L 13 9.5 C 13 8.121094 11.878906 7 10.5 7 L 8.5 7 C 7.933594 7 7.417969 7.183594 7 7.5 C 6.582031 7.183594 6.066406 7 5.5 7 Z M 16.5 7 C 15.121094 7 14 8.121094 14 9.5 L 14 20 L 16 20 L 16 15.9375 C 16.160156 15.96875 16.328125 16 16.5 16 L 20.5 16 C 21.878906 16 23 14.878906 23 13.5 L 23 9.5 C 23 8.121094 21.878906 7 20.5 7 Z M 16.5 9 L 20.5 9 C 20.773438 9 21 9.222656 21 9.5 L 21 13.5 C 21 13.777344 20.773438 14 20.5 14 L 16.5 14 C 16.226563 14 16 13.777344 16 13.5 L 16 9.5 C 16 9.222656 16.226563 9 16.5 9 Z"/></svg>